# xmcd
#
# Track frame offsets:
#        150
#        19712
#        36045
#        50641
#        71046
#        88807
#        102717
#        115995
#        144941
#        158684
#        170291
#        181649
#
# Disc length: 2579 seconds
#
# Revision: 0
# Processed by: cddbd v1.5.1PL0 Copyright (c) Steve Scherf et al.
# Submitted via: ExactAudioCopy v0.95a5
#
DISCID=9b0a110c
DTITLE=Ana de Hollanda - Um Filme
DYEAR=1900
DGENRE=Brasil
TTITLE0=Um Filme
TTITLE1=Depois de tanto amor
TTITLE2=Mais um samba popular
TTITLE3=Mares
TTITLE4=Sem Maldade
TTITLE5=Engomadinho
TTITLE6=Marca
TTITLE7=Yes, Ze manes
TTITLE8=Ele nao sabe dancar
TTITLE9=Girando sob a tempestade
TTITLE10=Contra Mim
TTITLE11=Que e que ha
EXTD=
EXTT0=
EXTT1=
EXTT2=
EXTT3=
EXTT4=
EXTT5=
EXTT6=
EXTT7=
EXTT8=
EXTT9=
EXTT10=
EXTT11=
PLAYORDER=
